<svg width="35" height="35" viewBox="0 0 35 35" fill="none" xmlns="http://www.w3.org/2000/svg">
<path d="M28 32.6703H2.33333V7.00368H17.7567L20.09 4.67035H2.33333C1.71449 4.67035 1.121 4.91618 0.683417 5.35377C0.245833 5.79135 0 6.38484 0 7.00368V32.6703C0 33.2892 0.245833 33.8827 0.683417 34.3203C1.121 34.7579 1.71449 35.0037 2.33333 35.0037H28C28.6188 35.0037 29.2123 34.7579 29.6499 34.3203C30.0875 33.8827 30.3333 33.2892 30.3333 32.6703V15.1704L28 17.5037V32.6703Z" fill="#FAFAFA"/>
<path d="M34.4516 4.48364L30.52 0.551971C30.3455 0.377007 30.1382 0.238189 29.9099 0.143472C29.6817 0.048755 29.437 0 29.19 0C28.9429 0 28.6982 0.048755 28.47 0.143472C28.2417 0.238189 28.0344 0.377007 27.86 0.551971L11.865 16.6403L10.57 22.252C10.5148 22.524 10.5206 22.8049 10.5869 23.0744C10.6533 23.3439 10.7785 23.5953 10.9537 23.8106C11.1288 24.026 11.3495 24.1998 11.5999 24.3196C11.8503 24.4394 12.1241 24.5023 12.4016 24.5036C12.5451 24.5193 12.6898 24.5193 12.8333 24.5036L18.4916 23.2553L34.4516 7.14364C34.6266 6.96915 34.7654 6.76186 34.8601 6.53363C34.9548 6.30541 35.0036 6.06074 35.0036 5.81364C35.0036 5.56654 34.9548 5.32187 34.8601 5.09364C34.7654 4.86542 34.6266 4.65812 34.4516 4.48364ZM17.2783 21.097L13.0083 22.042L14 17.807L26.04 5.68531L29.33 8.9753L17.2783 21.097ZM30.6483 7.65697L27.3583 4.36697L29.1666 2.52364L32.48 5.83697L30.6483 7.65697Z" fill="#FAFAFA"/>
</svg>
